<?xml version="1.0" encoding="UTF-8" standalone="no"?>
<svg
   xmlns:dc="http://purl.org/dc/elements/1.1/"
   xmlns:cc="http://creativecommons.org/ns#"
   xmlns:rdf="http://www.w3.org/1999/02/22-rdf-syntax-ns#"
   xmlns:svg="http://www.w3.org/2000/svg"
   xmlns="http://www.w3.org/2000/svg"
   xmlns:sodipodi="http://sodipodi.sourceforge.net/DTD/sodipodi-0.dtd"
   xmlns:inkscape="http://www.inkscape.org/namespaces/inkscape"
   sodipodi:docname="Mountain-Color-WhiteBorder.svg"
   inkscape:version="1.0 (4035a4f, 2020-05-01)"
   id="svg2240"
   version="1.1"
   viewBox="0 0 217.8495 97.175995"
   height="367.27936"
   width="823.36823">
  <defs
     id="defs2234" />
  <sodipodi:namedview
     inkscape:window-maximized="0"
     inkscape:window-y="23"
     inkscape:window-x="0"
     inkscape:window-height="855"
     inkscape:window-width="1252"
     units="px"
     fit-margin-bottom="0"
     fit-margin-right="0"
     fit-margin-left="0"
     fit-margin-top="0"
     showgrid="false"
     inkscape:document-rotation="0"
     inkscape:current-layer="layer1"
     inkscape:document-units="mm"
     inkscape:cy="183.63969"
     inkscape:cx="411.68411"
     inkscape:zoom="0.35"
     inkscape:pageshadow="2"
     inkscape:pageopacity="0"
     borderopacity="1.0"
     bordercolor="#666666"
     pagecolor="#131131"
     id="base" />
  <metadata
     id="metadata2237">
    <rdf:RDF>
      <cc:Work
         rdf:about="">
        <dc:format>image/svg+xml</dc:format>
        <dc:type
           rdf:resource="http://purl.org/dc/dcmitype/StillImage" />
        <dc:title></dc:title>
      </cc:Work>
    </rdf:RDF>
  </metadata>
  <g
     transform="translate(3.0914209,-99.578666)"
     id="layer1"
     inkscape:groupmode="layer"
     inkscape:label="Layer 1">
    <polygon
       id="polygon1227"
       points="328.09,850.62 312.05,866.66 344.14,866.66 "
       class="st2"
       style="fill:#fff200"
       transform="matrix(0.40276865,0,0,0.40276865,-55.378847,-152.30882)" />
    <polygon
       id="polygon1229"
       points="300.45,822.98 256.76,866.66 295.67,866.66 319.9,842.43 "
       class="st3"
       style="fill:#d7df23"
       transform="matrix(0.40276865,0,0,0.40276865,-55.378847,-152.30882)" />
    <polygon
       id="polygon1231"
       points="272.81,795.33 201.48,866.66 240.38,866.66 292.26,814.79 "
       class="st4"
       style="fill:#8dc63f"
       transform="matrix(0.40276865,0,0,0.40276865,-55.378847,-152.30882)" />
    <polygon
       id="polygon1233"
       points="245.17,767.69 146.2,866.66 185.1,866.66 264.62,787.14 "
       class="st5"
       style="fill:#39b54a"
       transform="matrix(0.40276865,0,0,0.40276865,-55.378847,-152.30882)" />
    <polygon
       id="polygon1235"
       points="544.38,850.63 368.44,674.69 348.98,694.14 521.51,866.66 528.42,866.66 "
       class="st6"
       style="fill:#2b3990"
       transform="matrix(0.40276865,0,0,0.40276865,-55.378847,-152.30882)" />
    <rect
       id="rect1237"
       height="100.21593"
       width="11.080059"
       class="st7"
       transform="rotate(-45)"
       y="150.21925"
       x="-14.018887"
       style="fill:#262262;stroke-width:0.402765" />
    <polygon
       id="polygon1239"
       points="293.7,749.42 410.94,866.66 449.84,866.66 313.15,729.97 "
       class="st8"
       style="fill:#00aeef"
       transform="matrix(0.40276865,0,0,0.40276865,-55.378847,-152.30882)" />
    <polygon
       id="polygon1241"
       points="605.19,828.08 566.61,866.66 605.52,866.66 624.64,847.54 "
       class="st9"
       style="fill:#be1e2d"
       transform="matrix(0.40276865,0,0,0.40276865,-55.378847,-152.30882)" />
    <polygon
       id="polygon1243"
       points="632.83,855.73 621.9,866.66 643.77,866.66 "
       class="st10"
       style="fill:#ed1c24"
       transform="matrix(0.40276865,0,0,0.40276865,-55.378847,-152.30882)" />
    <polygon
       id="polygon1245"
       points="321.34,721.78 466.23,866.66 505.13,866.66 340.79,702.33 "
       class="st11"
       style="fill:#1b75bc"
       transform="matrix(0.40276865,0,0,0.40276865,-55.378847,-152.30882)" />
    <g
       id="g1305"
       transform="matrix(0.40276865,0,0,0.40276865,-55.378847,-152.30882)">
      <polygon
         id="polygon1299"
         points="368.44,674.69 544.38,850.63 552.57,842.44 376.63,666.5 396.08,647.04 572.02,822.99 580.21,814.8 404.27,638.85 390.8,625.39 272.04,744.15 394.56,866.66 410.94,866.66 293.7,749.42 313.15,729.97 449.84,866.66 466.23,866.66 321.34,721.78 340.79,702.33 505.13,866.66 521.51,866.66 348.98,694.14 "
         class="st0"
         style="fill:#ffffff" />
      <polygon
         id="polygon1301"
         points="643.77,866.66 670.7,866.66 665.75,861.71 610.47,806.43 550.23,866.66 566.61,866.66 605.19,828.08 624.64,847.54 605.52,866.66 621.9,866.66 632.83,855.73 "
         class="st0"
         style="fill:#ffffff" />
      <polygon
         id="polygon1303"
         points="236.98,759.5 129.82,866.66 146.2,866.66 245.17,767.69 264.62,787.14 185.1,866.66 201.48,866.66 272.81,795.33 292.26,814.79 240.38,866.66 256.76,866.66 300.45,822.98 319.9,842.43 295.67,866.66 312.05,866.66 328.09,850.62 344.14,866.66 367.33,866.66 371.07,866.66 250.44,746.04 "
         class="st0"
         style="fill:#ffffff" />
    </g>
  </g>
</svg>
