<?xml version="1.0" encoding="UTF-8" standalone="no"?>
<svg
   xmlns:dc="http://purl.org/dc/elements/1.1/"
   xmlns:cc="http://creativecommons.org/ns#"
   xmlns:rdf="http://www.w3.org/1999/02/22-rdf-syntax-ns#"
   xmlns:svg="http://www.w3.org/2000/svg"
   xmlns="http://www.w3.org/2000/svg"
   xmlns:sodipodi="http://sodipodi.sourceforge.net/DTD/sodipodi-0.dtd"
   xmlns:inkscape="http://www.inkscape.org/namespaces/inkscape"
   inkscape:export-ydpi="96"
   inkscape:export-xdpi="96"
   inkscape:export-filename="/Users/brian/Dropbox/CMS/Logo-Color-on-White-no-text-416x256px.png"
   sodipodi:docname="Logo-Color-on-White-no-text.svg"
   inkscape:version="1.0beta2 (2b71d25, 2019-12-03)"
   id="svg8"
   version="1.1"
   viewBox="0 0 110.06667 67.733332"
   height="256"
   width="416">
  <defs
     id="defs2" />
  <sodipodi:namedview
     fit-margin-bottom="0"
     fit-margin-right="0"
     fit-margin-left="0"
     fit-margin-top="0"
     inkscape:document-rotation="0"
     inkscape:window-maximized="0"
     inkscape:window-y="0"
     inkscape:window-x="0"
     inkscape:window-height="900"
     inkscape:window-width="1440"
     units="px"
     showgrid="false"
     inkscape:current-layer="layer1"
     inkscape:document-units="mm"
     inkscape:cy="128"
     inkscape:cx="136.78613"
     inkscape:zoom="2.703125"
     inkscape:pageshadow="2"
     inkscape:pageopacity="0.0"
     borderopacity="1.0"
     bordercolor="#666666"
     pagecolor="#ffffff"
     id="base" />
  <metadata
     id="metadata5">
    <rdf:RDF>
      <cc:Work
         rdf:about="">
        <dc:format>image/svg+xml</dc:format>
        <dc:type
           rdf:resource="http://purl.org/dc/dcmitype/StillImage" />
        <dc:title></dc:title>
      </cc:Work>
    </rdf:RDF>
  </metadata>
  <g
     transform="translate(-27.228863,-107.84229)"
     id="layer1"
     inkscape:groupmode="layer"
     inkscape:label="Layer 1">
    <g
       transform="matrix(0.47259681,0,0,0.47259681,15.491011,66.699042)"
       id="g1479">
      <g
         id="g1462">
        <polygon
           transform="matrix(0.42173776,0,0,0.42173776,-360.39453,-155.90829)"
           style="fill:#fff200"
           class="st2"
           points="1101.34,866.66 1133.43,866.66 1117.39,850.62 "
           id="polygon549" />
        <polygon
           transform="matrix(0.42173776,0,0,0.42173776,-360.39453,-155.90829)"
           style="fill:#d7df23"
           class="st3"
           points="1089.74,822.98 1046.06,866.66 1084.96,866.66 1109.2,842.43 "
           id="polygon551" />
        <polygon
           transform="matrix(0.42173776,0,0,0.42173776,-360.39453,-155.90829)"
           style="fill:#8dc63f"
           class="st4"
           points="1062.1,795.33 990.77,866.66 1029.68,866.66 1081.55,814.79 "
           id="polygon553" />
        <polygon
           transform="matrix(0.42173776,0,0,0.42173776,-360.39453,-155.90829)"
           style="fill:#39b54a"
           class="st5"
           points="1034.46,767.69 935.49,866.66 974.39,866.66 1053.91,787.14 "
           id="polygon555" />
        <polygon
           transform="matrix(0.42173776,0,0,0.42173776,-360.39453,-155.90829)"
           style="fill:#2b3990"
           class="st6"
           points="1317.72,866.66 1333.68,850.63 1157.73,674.69 1138.28,694.14 1310.8,866.66 "
           id="polygon557" />
        <rect
           style="fill:#262262;stroke-width:0.421734"
           x="4.332406"
           y="181.36447"
           transform="rotate(-45)"
           class="st7"
           width="11.601894"
           height="104.93578"
           id="rect559" />
        <polygon
           transform="matrix(0.42173776,0,0,0.42173776,-360.39453,-155.90829)"
           style="fill:#00aeef"
           class="st8"
           points="1083,749.42 1200.24,866.66 1239.14,866.66 1102.45,729.97 "
           id="polygon561" />
        <polygon
           transform="matrix(0.42173776,0,0,0.42173776,-360.39453,-155.90829)"
           style="fill:#be1e2d"
           class="st9"
           points="1394.49,828.08 1355.91,866.66 1394.81,866.66 1413.94,847.54 "
           id="polygon563" />
        <polygon
           transform="matrix(0.42173776,0,0,0.42173776,-360.39453,-155.90829)"
           style="fill:#ed1c24"
           class="st10"
           points="1411.19,866.66 1433.06,866.66 1422.13,855.73 "
           id="polygon565" />
        <polygon
           transform="matrix(0.42173776,0,0,0.42173776,-360.39453,-155.90829)"
           style="fill:#1b75bc"
           class="st11"
           points="1110.64,721.78 1255.52,866.66 1294.42,866.66 1130.09,702.33 "
           id="polygon567" />
      </g>
      <g
         id="g627"
         transform="matrix(0.42173776,0,0,0.42173776,-360.39453,-155.90829)">
        <polygon
           id="polygon621"
           points="1185.37,647.04 1361.32,822.99 1369.51,814.8 1193.56,638.85 1180.1,625.39 1061.34,744.15 1183.86,866.66 1200.24,866.66 1083,749.42 1102.45,729.97 1239.14,866.66 1255.52,866.66 1110.64,721.78 1130.09,702.33 1294.42,866.66 1310.8,866.66 1138.28,694.14 1157.73,674.69 1333.68,850.63 1341.87,842.44 1165.92,666.5 " />
        <polygon
           id="polygon623"
           points="1339.53,866.66 1355.91,866.66 1394.49,828.08 1413.94,847.54 1394.81,866.66 1411.19,866.66 1422.13,855.73 1433.06,866.66 1460,866.66 1455.05,861.71 1399.76,806.43 " />
        <polygon
           id="polygon625"
           points="1053.91,787.14 974.39,866.66 990.77,866.66 1062.1,795.33 1081.55,814.79 1029.68,866.66 1046.06,866.66 1089.74,822.98 1109.2,842.43 1084.96,866.66 1101.34,866.66 1117.39,850.62 1133.43,866.66 1156.63,866.66 1160.36,866.66 1039.74,746.04 1026.27,759.5 919.11,866.66 935.49,866.66 1034.46,767.69 " />
      </g>
    </g>
  </g>
  <style
     type="text/css"
     id="style343">
	.st0{fill:#FFFFFF;}
	.st1{enable-background:new    ;}
	.st2{fill:#FFF200;}
	.st3{fill:#D7DF23;}
	.st4{fill:#8DC63F;}
	.st5{fill:#39B54A;}
	.st6{fill:#2B3990;}
	.st7{fill:#262262;}
	.st8{fill:#00AEEF;}
	.st9{fill:#BE1E2D;}
	.st10{fill:#ED1C24;}
	.st11{fill:#1B75BC;}
</style>
</svg>
